<?xml version="1.0" encoding="utf-8"?>
<!-- Generator: Adobe Illustrator 19.1.0, SVG Export Plug-In . SVG Version: 6.00 Build 0)  -->
<svg version="1.1" id="Layer_1" xmlns="http://www.w3.org/2000/svg" xmlns:xlink="http://www.w3.org/1999/xlink" x="0px" y="0px"
	 viewBox="0 0 436.8 230.5" style="enable-background:new 0 0 436.8 230.5;" xml:space="preserve">
<style type="text/css">
	.st0{clip-path:url(#SVGID_2_);fill:#231F20;}
</style>
<g>
	<defs>
		<rect id="SVGID_1_" width="436.8" height="230.5"/>
	</defs>
	<clipPath id="SVGID_2_">
		<use xlink:href="#SVGID_1_"  style="overflow:visible;"/>
	</clipPath>
	<path class="st0" d="M220.8,229.7h5.3v-39.5l31.1,39.5h4.3v-48.2h-5.3v38.6l-30.4-38.6h-5.1V229.7z M188.9,230.5
		c8.1,0,14.9-3.4,19.4-7.4v-19.2h-19.9v4.9H203v12c-3.3,2.7-8.4,4.8-13.9,4.8c-11.7,0-19.1-8.5-19.1-20v-0.1
		c0-10.7,7.6-19.8,18.3-19.8c6.8,0,10.9,2.3,14.7,5.5l3.5-4.1c-4.8-4.1-9.8-6.4-18-6.4c-14.5,0-24.2,11.7-24.2,24.9v0.1
		C164.4,219.5,173.7,230.5,188.9,230.5 M146.3,229.7h5.4v-48.2h-5.4V229.7z M117.6,230.4c9.6,0,16.5-5.4,16.5-13.6v-0.1
		c0-7.4-5-11.3-15.7-13.6c-10.6-2.3-13.1-4.8-13.1-9.4v-0.1c0-4.3,4-7.8,10.3-7.8c5,0,9.4,1.6,13.9,5.2l3.2-4.2
		c-4.9-3.9-9.9-5.9-16.9-5.9c-9.2,0-15.8,5.6-15.8,13.2v0.1c0,7.9,5.1,11.5,16.2,13.9c10.1,2.1,12.5,4.7,12.5,9.2v0.1
		c0,4.8-4.3,8.2-10.7,8.2c-6.7,0-11.5-2.3-16.5-6.8l-3.4,4C103.6,227.8,109.9,230.4,117.6,230.4 M54.2,229.7h35.2v-5H59.6v-16.9
		h26.3v-5H59.6v-16.5H89v-5H54.2V229.7z M5.4,224.7v-38.2h11.3c12.2,0,20,8.4,20,19.1v0.1c0,10.7-7.8,18.9-20,18.9H5.4z M0,229.7
		h16.7c15.2,0,25.6-10.5,25.6-24.1v-0.1c0-13.6-10.5-24-25.6-24H0V229.7z"/>
	<path class="st0" d="M401.6,169.3h35.2v-5H407v-16.9h26.3v-5H407v-16.5h29.4v-5h-34.8V169.3z M361,147.3v-21.2h12.2
		c7.8,0,12.9,3.6,12.9,10.5v0.1c0,6.3-5.2,10.6-13.2,10.6H361z M355.6,169.3h5.4v-17h11.7c10.3,0,18.9-5.4,18.9-15.8v-0.1
		c0-9.5-7.2-15.3-18-15.3h-18V169.3z M310.2,151.7l11-24.6l10.9,24.6H310.2z M296.7,169.3h5.6l5.7-12.7h26.2l5.6,12.7h5.9l-22-48.5
		h-5.1L296.7,169.3z M271.7,170.1c8.7,0,14.3-3.4,19.3-8.5l-3.6-3.5c-4.6,4.4-9,7-15.6,7c-10.6,0-18.7-8.7-18.7-19.9v-0.1
		c0-11.1,8-19.8,18.7-19.8c6.5,0,11.1,2.8,15.1,6.6l3.7-4c-4.8-4.5-10.1-7.6-18.8-7.6c-14.2,0-24.4,11.3-24.4,24.9v0.1
		C247.6,159.2,257.8,170.1,271.7,170.1 M221.5,170c9.6,0,16.5-5.4,16.5-13.6v-0.1c0-7.4-5-11.3-15.7-13.6
		c-10.6-2.3-13.1-4.8-13.1-9.4v-0.1c0-4.3,4-7.8,10.3-7.8c5,0,9.4,1.6,13.9,5.2l3.2-4.2c-4.9-3.9-9.9-5.9-16.9-5.9
		c-9.2,0-15.8,5.6-15.8,13.2v0.1c0,7.9,5.1,11.5,16.2,13.9c10.1,2.1,12.5,4.7,12.5,9.2v0.1c0,4.8-4.3,8.2-10.7,8.2
		c-6.7,0-11.5-2.3-16.5-6.8l-3.4,4C207.6,167.5,213.8,170,221.5,170 M156.9,164.3v-38.2h11.3c12.2,0,20,8.4,20,19.1v0.1
		c0,10.7-7.8,18.9-20,18.9H156.9z M151.4,169.3h16.7c15.2,0,25.6-10.5,25.6-24.1v-0.1c0-13.6-10.5-24-25.6-24h-16.7V169.3z
		 M97,169.3h5.3v-39.5l31.1,39.5h4.3v-48.2h-5.3v38.6l-30.4-38.6H97V169.3z M51.9,151.7l11-24.6l10.9,24.6H51.9z M38.5,169.3h5.6
		l5.7-12.7H76l5.6,12.7h5.9l-22-48.5h-5.1L38.5,169.3z M0,169.3h32.6v-5H5.4v-43.2H0V169.3z"/>
	<path class="st0" d="M283,109.6c9.6,0,16.5-5.4,16.5-13.6v-0.1c0-7.4-5-11.3-15.7-13.6c-10.6-2.3-13.1-4.8-13.1-9.4v-0.1
		c0-4.3,4-7.8,10.3-7.8c5,0,9.4,1.6,13.9,5.2L298,66C293.1,62,288.1,60,281,60c-9.2,0-15.8,5.6-15.8,13.2v0.1
		c0,7.9,5.1,11.5,16.2,13.9c10.1,2.1,12.5,4.7,12.5,9.2v0.1c0,4.8-4.3,8.2-10.7,8.2c-6.7,0-11.5-2.3-16.5-6.8l-3.4,4
		C269,107.1,275.3,109.6,283,109.6 M217.3,108.9h5.4V96L233,85.6l18.5,23.3h6.8l-21.6-27.1l20.7-21.1h-7l-27.7,28.8V60.7h-5.4V108.9
		z M181.2,104.7c-11,0-19-9-19-19.9v-0.1c0-10.9,7.9-19.8,18.9-19.8c11,0,19,9,19,19.9V85C200.1,95.9,192.3,104.7,181.2,104.7
		 M181.1,109.8c14.7,0,24.7-11.6,24.7-24.9v-0.1c0-13.3-9.8-24.8-24.5-24.8s-24.7,11.6-24.7,24.9V85
		C156.6,98.3,166.4,109.8,181.1,109.8 M122.7,104.7c-11,0-19-9-19-19.9v-0.1c0-10.9,7.9-19.8,18.9-19.8s19,9,19,19.9V85
		C141.6,95.9,133.7,104.7,122.7,104.7 M122.6,109.8c14.7,0,24.7-11.6,24.7-24.9v-0.1c0-13.3-9.8-24.8-24.5-24.8S98.1,71.5,98.1,84.8
		V85C98.1,98.3,107.9,109.8,122.6,109.8 M55.5,85.3V65.8h14.9c7.8,0,12.3,3.6,12.3,9.5v0.1c0,6.2-5.2,9.9-12.4,9.9H55.5z
		 M50.1,108.9h5.4V90.2h13.8l14,18.7h6.7L75.1,89.2c7.6-1.4,13.1-6.1,13.1-14v-0.1c0-3.8-1.4-7.2-3.7-9.5c-3-3-7.8-4.8-13.7-4.8
		H50.1V108.9z M5.4,104V87h15.2c8.4,0,12.8,3,12.8,8.3v0.1c0,5.4-4.5,8.6-11.8,8.6H5.4z M5.4,82.2V65.6H20c6.9,0,10.7,3.1,10.7,7.8
		v0.1c0,5.6-4.5,8.6-11.1,8.6H5.4z M0,108.9h21.4c10.5,0,17.5-4.9,17.5-13.2v-0.1c0-6.6-4.6-9.9-10.3-11.6c3.8-1.7,7.6-4.9,7.6-11.2
		v-0.1c0-3.1-1.1-5.6-3.1-7.7c-2.8-2.7-7.1-4.3-12.6-4.3H0V108.9z"/>
	<path class="st0" d="M302.5,30.9l11-24.6l10.9,24.6H302.5z M289.1,48.5h5.6l5.7-12.7h26.2l5.6,12.7h5.9L316.1,0H311L289.1,48.5z
		 M247.6,43.5V5.4h11.3c12.2,0,20,8.4,20,19.1v0.1c0,10.7-7.8,18.9-20,18.9H247.6z M242.2,48.5h16.7c15.2,0,25.6-10.5,25.6-24.1
		v-0.1c0-13.6-10.5-24-25.6-24h-16.7V48.5z M187.4,48.5h5.3V9l31.1,39.5h4.3V0.3h-5.3V39L192.5,0.3h-5.1V48.5z M141.7,30.9l11-24.6
		l10.9,24.6H141.7z M128.2,48.5h5.6l5.7-12.7h26.2l5.6,12.7h5.9L155.3,0h-5.1L128.2,48.5z M87,24.9V5.4h14.9
		c7.8,0,12.3,3.6,12.3,9.5V15c0,6.2-5.2,9.9-12.4,9.9H87z M81.5,48.5H87V29.8h13.8l14,18.7h6.7l-14.8-19.7c7.6-1.4,13.1-6.1,13.1-14
		v-0.1c0-3.8-1.4-7.2-3.7-9.5c-3-3-7.8-4.8-13.7-4.8H81.5V48.5z M60.9,48.5h5.4V0.3h-5.4V48.5z M0,48.5h5.3v-39l17.6,25.8h0.3
		L40.7,9.5v39h5.4V0.3h-5.5L23.1,26.6L5.5,0.3H0V48.5z"/>
</g>
</svg>
